<?xml version="1.0" encoding="utf-8"?>
<!-- Generator: Adobe Illustrator 26.5.3, SVG Export Plug-In . SVG Version: 6.00 Build 0)  -->
<svg version="1.1" id="Layer_1" xmlns="http://www.w3.org/2000/svg" xmlns:xlink="http://www.w3.org/1999/xlink" x="0px" y="0px"
	 viewBox="0 0 841.9 595.3" style="enable-background:new 0 0 841.9 595.3;" xml:space="preserve">
<style type="text/css">
	.st0{fill:#FFFFFF;stroke:#000000;stroke-miterlimit:10;}
	.st1{fill:#FFFFFF;stroke:#000000;stroke-width:0.9662;stroke-miterlimit:10;}
</style>
<path class="st0" d="M808.8-100.1"/>
<path class="st0" d="M-341.6,72.9"/>
<path class="st0" d="M-341.6,72.8"/>
<path class="st0" d="M808.8-100.1"/>
<path class="st0" d="M703.6-100.1"/>
<line class="st0" x1="651" y1="-84.8" x2="598.4" y2="-100"/>
<polyline class="st1" points="598.4,-69.7 649.4,-84.4 861.4,-84.8 "/>
<line class="st0" x1="598.4" y1="-69.6" x2="545.7" y2="-84.9"/>
<line class="st0" x1="598.4" y1="-100" x2="545.7" y2="-84.8"/>
<line class="st0" x1="545.7" y1="-84.8" x2="493.1" y2="-100"/>
<line class="st0" x1="545.7" y1="-84.9" x2="493.1" y2="-69.6"/>
<line class="st0" x1="493.1" y1="-69.6" x2="440.5" y2="-84.9"/>
<line class="st0" x1="493.1" y1="-99.9" x2="440.5" y2="-84.7"/>
<line class="st0" x1="440.5" y1="-84.7" x2="387.9" y2="-99.9"/>
<line class="st0" x1="440.5" y1="-84.8" x2="387.9" y2="-69.5"/>
<line class="st0" x1="387.9" y1="-69.5" x2="335.3" y2="-84.8"/>
<line class="st0" x1="387.9" y1="-99.9" x2="335.3" y2="-84.7"/>
<line class="st0" x1="335.3" y1="-84.7" x2="282.7" y2="-99.9"/>
<line class="st0" x1="335.3" y1="-84.8" x2="282.7" y2="-69.5"/>
<line class="st0" x1="282.7" y1="-69.5" x2="230.1" y2="-84.8"/>
<line class="st0" x1="282.7" y1="-99.8" x2="230.1" y2="-84.6"/>
<line class="st0" x1="230.1" y1="-84.6" x2="177.5" y2="-99.8"/>
<line class="st0" x1="230.1" y1="-84.7" x2="177.5" y2="-69.5"/>
<line class="st0" x1="177.5" y1="-69.5" x2="124.9" y2="-84.7"/>
<line class="st0" x1="177.5" y1="-99.8" x2="124.9" y2="-84.6"/>
<line class="st0" x1="124.9" y1="-84.6" x2="72.3" y2="-99.8"/>
<line class="st0" x1="124.9" y1="-84.7" x2="72.3" y2="-69.5"/>
<line class="st0" x1="72.3" y1="-69.5" x2="19.6" y2="-84.7"/>
<line class="st0" x1="72.3" y1="-99.7" x2="19.6" y2="-84.5"/>
<line class="st0" x1="493.1" y1="-69.5" x2="440.5" y2="-84.7"/>
<line class="st0" x1="493.1" y1="-69.6" x2="440.5" y2="-54.4"/>
<line class="st0" x1="440.5" y1="-54.4" x2="387.9" y2="-69.6"/>
<line class="st0" x1="440.5" y1="-84.7" x2="387.9" y2="-69.5"/>
<line class="st0" x1="387.9" y1="-69.5" x2="335.3" y2="-84.7"/>
<line class="st0" x1="387.9" y1="-69.6" x2="335.3" y2="-54.4"/>
<line class="st0" x1="335.3" y1="-54.4" x2="282.7" y2="-69.6"/>
<line class="st0" x1="335.3" y1="-84.6" x2="282.7" y2="-69.4"/>
<line class="st0" x1="282.7" y1="-69.5" x2="230.1" y2="-84.7"/>
<line class="st0" x1="282.7" y1="-69.6" x2="230.1" y2="-54.3"/>
<line class="st0" x1="230.1" y1="-54.3" x2="177.5" y2="-69.6"/>
<line class="st0" x1="230.1" y1="-84.7" x2="177.5" y2="-69.5"/>
<line class="st0" x1="177.5" y1="-69.5" x2="124.9" y2="-84.7"/>
<line class="st0" x1="177.5" y1="-69.6" x2="124.9" y2="-54.3"/>
<line class="st0" x1="124.9" y1="-54.3" x2="72.3" y2="-69.6"/>
<line class="st0" x1="124.9" y1="-84.6" x2="72.3" y2="-69.4"/>
<line class="st0" x1="72.3" y1="-69.3" x2="19.6" y2="-84.6"/>
<line class="st0" x1="72.3" y1="-69.4" x2="19.6" y2="-54.2"/>
<line class="st0" x1="493.1" y1="-99.8" x2="440.5" y2="-115"/>
<line class="st0" x1="493.1" y1="-99.9" x2="440.5" y2="-84.6"/>
<line class="st0" x1="440.5" y1="-84.6" x2="387.9" y2="-99.9"/>
<line class="st0" x1="440.5" y1="-115" x2="387.9" y2="-99.8"/>
<line class="st0" x1="387.9" y1="-99.8" x2="335.3" y2="-115"/>
<line class="st0" x1="387.9" y1="-99.9" x2="335.3" y2="-84.6"/>
<line class="st0" x1="335.3" y1="-84.6" x2="282.7" y2="-99.9"/>
<line class="st0" x1="335.3" y1="-114.9" x2="282.7" y2="-99.7"/>
<line class="st0" x1="282.7" y1="-99.7" x2="230.1" y2="-114.9"/>
<line class="st0" x1="282.7" y1="-99.8" x2="230.1" y2="-84.6"/>
<line class="st0" x1="230.1" y1="-84.6" x2="177.5" y2="-99.8"/>
<line class="st0" x1="230.1" y1="-114.9" x2="177.5" y2="-99.7"/>
<line class="st0" x1="177.5" y1="-99.7" x2="124.9" y2="-114.9"/>
<line class="st0" x1="177.5" y1="-99.8" x2="124.9" y2="-84.6"/>
<line class="st0" x1="124.9" y1="-84.6" x2="72.3" y2="-99.8"/>
<line class="st0" x1="124.9" y1="-114.8" x2="72.3" y2="-99.6"/>
<line class="st0" x1="72.3" y1="-99.6" x2="19.6" y2="-114.8"/>
<line class="st0" x1="72.3" y1="-99.7" x2="19.6" y2="-84.5"/>
<line class="st0" x1="335.3" y1="-54.1" x2="282.7" y2="-69.3"/>
<line class="st0" x1="335.3" y1="-54.2" x2="282.7" y2="-38.9"/>
<line class="st0" x1="282.7" y1="-38.9" x2="230.1" y2="-54.2"/>
<line class="st0" x1="282.7" y1="-69.3" x2="230.1" y2="-54.1"/>
<line class="st0" x1="230.1" y1="-54.1" x2="177.5" y2="-69.3"/>
<line class="st0" x1="230.1" y1="-54.2" x2="177.5" y2="-38.9"/>
<line class="st0" x1="177.5" y1="-38.9" x2="124.9" y2="-54.2"/>
<line class="st0" x1="177.5" y1="-69.2" x2="124.9" y2="-54"/>
<line class="st0" x1="124.9" y1="-54" x2="72.3" y2="-69.3"/>
<line class="st0" x1="124.9" y1="-54.1" x2="72.3" y2="-38.9"/>
<line class="st0" x1="72.3" y1="-69.3" x2="19.6" y2="-54"/>
<line class="st0" x1="335.3" y1="-114.9" x2="282.7" y2="-130.1"/>
<line class="st0" x1="335.3" y1="-115" x2="282.7" y2="-99.7"/>
<line class="st0" x1="282.7" y1="-99.7" x2="230.1" y2="-115"/>
<line class="st0" x1="282.7" y1="-130.1" x2="230.1" y2="-114.9"/>
<line class="st0" x1="230.1" y1="-114.9" x2="177.5" y2="-130.1"/>
<line class="st0" x1="230.1" y1="-115" x2="177.5" y2="-99.7"/>
<line class="st0" x1="177.5" y1="-99.7" x2="124.9" y2="-115"/>
<line class="st0" x1="177.5" y1="-130" x2="124.9" y2="-114.8"/>
<line class="st0" x1="124.9" y1="-114.8" x2="72.3" y2="-130"/>
<line class="st0" x1="124.9" y1="-114.9" x2="72.3" y2="-99.7"/>
<line class="st0" x1="-352.8" y1="100.5" x2="-336.9" y2="45.1"/>
<path class="st0" d="M-322.4,73"/>
<path class="st0" d="M-322.4,72.9"/>
<path class="st0" d="M844,299.6"/>
<path class="st0" d="M844,299.5"/>
<line class="st0" x1="-321.1" y1="100.5" x2="-336.9" y2="45.1"/>
<path class="st0" d="M-309.9,72.8"/>
<path class="st0" d="M-309.9,72.7"/>
<line class="st0" x1="-321.1" y1="100.4" x2="-305.2" y2="45"/>
<path class="st0" d="M-290.7,72.9"/>
<path class="st0" d="M-290.7,72.8"/>
<line class="st0" x1="-289.4" y1="100.4" x2="-305.2" y2="45"/>
<path class="st0" d="M-278.2,72.8"/>
<path class="st0" d="M-278.2,72.7"/>
<line class="st0" x1="-289.4" y1="100.4" x2="-273.5" y2="45"/>
<path class="st0" d="M-259,72.9"/>
<path class="st0" d="M-259,72.8"/>
<line class="st0" x1="-257.7" y1="100.4" x2="-273.5" y2="45"/>
<path class="st0" d="M-246.5,72.6"/>
<path class="st0" d="M-246.5,72.5"/>
<line class="st0" x1="-257.7" y1="100.3" x2="-241.8" y2="44.9"/>
<path class="st0" d="M-227.3,72.8"/>
<path class="st0" d="M-227.3,72.7"/>
<line class="st0" x1="-226" y1="100.3" x2="-241.8" y2="44.9"/>
<path class="st0" d="M-214.8,72.7"/>
<path class="st0" d="M-214.8,72.6"/>
<line class="st0" x1="-226" y1="100.4" x2="-210.1" y2="44.9"/>
<path class="st0" d="M-195.6,72.9"/>
<path class="st0" d="M-195.6,72.8"/>
<line class="st0" x1="-194.3" y1="100.4" x2="-210.1" y2="44.9"/>
<path class="st0" d="M-183.1,72.6"/>
<path class="st0" d="M-183.1,72.5"/>
<line class="st0" x1="-194.3" y1="100.3" x2="-178.4" y2="44.8"/>
<path class="st0" d="M-163.9,72.8"/>
<path class="st0" d="M-163.9,72.7"/>
<line class="st0" x1="-162.6" y1="100.3" x2="-178.4" y2="44.8"/>
<path class="st0" d="M-151.4,72.6"/>
<path class="st0" d="M-151.4,72.5"/>
<line class="st0" x1="-162.6" y1="100.3" x2="-146.7" y2="44.8"/>
<path class="st0" d="M-132.2,72.8"/>
<path class="st0" d="M-132.2,72.7"/>
<line class="st0" x1="-130.9" y1="100.3" x2="-146.7" y2="44.8"/>
<path class="st0" d="M-119.7,72.5"/>
<path class="st0" d="M-119.7,72.4"/>
<line class="st0" x1="-130.9" y1="100.2" x2="-115" y2="44.7"/>
<path class="st0" d="M-100.5,72.6"/>
<path class="st0" d="M-100.5,72.5"/>
<line class="st0" x1="-99.2" y1="100.2" x2="-115" y2="44.7"/>
<path class="st0" d="M-88,72.6"/>
<path class="st0" d="M-88,72.5"/>
<line class="st0" x1="-99.2" y1="100.3" x2="-83.4" y2="44.9"/>
<path class="st0" d="M-68.8,72.8"/>
<path class="st0" d="M-68.8,72.7"/>
<line class="st0" x1="-67.5" y1="100.3" x2="-83.4" y2="44.9"/>
<path class="st0" d="M-56.3,72.5"/>
<path class="st0" d="M-56.3,72.4"/>
<line class="st0" x1="-67.5" y1="100.2" x2="-51.7" y2="44.7"/>
<path class="st0" d="M-37.1,72.7"/>
<path class="st0" d="M-37.1,72.6"/>
<line class="st0" x1="-35.8" y1="100.2" x2="-51.7" y2="44.7"/>
<path class="st0" d="M-24.6,72.5"/>
<path class="st0" d="M-24.6,72.4"/>
<line class="st0" x1="-35.8" y1="100.2" x2="-20" y2="44.7"/>
<path class="st0" d="M26.3,72.6"/>
<path class="st0" d="M26.3,72.5"/>
<path class="st0" d="M38.8,72.5"/>
<path class="st0" d="M38.8,72.4"/>
<line class="st0" x1="10.3" y1="264.4" x2="10.3" y2="333.2"/>
<line class="st0" x1="19.1" y1="261.8" x2="19.1" y2="330.6"/>
<line class="st0" x1="27.9" y1="261.8" x2="27.9" y2="330.6"/>
<line class="st0" x1="36.7" y1="263.4" x2="36.7" y2="332.1"/>
<line class="st0" x1="45.5" y1="270.6" x2="45.5" y2="339.4"/>
<line class="st0" x1="54.8" y1="278.8" x2="54.8" y2="347.5"/>
<line class="st0" x1="63.6" y1="281.6" x2="63.6" y2="350.4"/>
<line class="st0" x1="72.3" y1="280" x2="72.3" y2="348.8"/>
<line class="st0" x1="81.6" y1="279.6" x2="81.6" y2="348.3"/>
<line class="st0" x1="90.4" y1="271.4" x2="90.4" y2="340.2"/>
<line class="st0" x1="99.2" y1="267.2" x2="99.2" y2="335.9"/>
<line class="st0" x1="108" y1="265.2" x2="108" y2="334"/>
<line class="st0" x1="116.8" y1="262.6" x2="116.8" y2="331.4"/>
<line class="st0" x1="125.6" y1="262.6" x2="125.6" y2="331.4"/>
<line class="st0" x1="134.4" y1="264.2" x2="134.4" y2="333"/>
<line class="st0" x1="143.2" y1="271.4" x2="143.2" y2="340.2"/>
<line class="st0" x1="152.5" y1="279.6" x2="152.5" y2="348.3"/>
<line class="st0" x1="161.3" y1="282.4" x2="161.3" y2="351.2"/>
<line class="st0" x1="170.1" y1="280.8" x2="170.1" y2="349.6"/>
<line class="st0" x1="179.5" y1="278" x2="179.5" y2="346.8"/>
<line class="st0" x1="188.3" y1="269.9" x2="188.3" y2="338.7"/>
<line class="st0" x1="197.1" y1="265.7" x2="197.1" y2="334.4"/>
<line class="st0" x1="205.9" y1="263.7" x2="205.9" y2="332.5"/>
<line class="st0" x1="214.7" y1="261.1" x2="214.7" y2="329.9"/>
<line class="st0" x1="223.5" y1="261.1" x2="223.5" y2="329.9"/>
<line class="st0" x1="232.3" y1="262.7" x2="232.3" y2="331.4"/>
<line class="st0" x1="241.1" y1="269.9" x2="241.1" y2="338.7"/>
<line class="st0" x1="250.4" y1="278" x2="250.4" y2="346.8"/>
<line class="st0" x1="259.2" y1="280.9" x2="259.2" y2="349.7"/>
<line class="st0" x1="268" y1="279.3" x2="268" y2="348"/>
<line class="st0" x1="277.3" y1="278.9" x2="277.3" y2="347.6"/>
<line class="st0" x1="286.1" y1="270.7" x2="286.1" y2="339.5"/>
<line class="st0" x1="294.9" y1="266.5" x2="294.9" y2="335.2"/>
<line class="st0" x1="303.7" y1="264.5" x2="303.7" y2="333.3"/>
<line class="st0" x1="312.5" y1="261.9" x2="312.5" y2="330.7"/>
<line class="st0" x1="321.3" y1="261.9" x2="321.3" y2="330.7"/>
<line class="st0" x1="330.1" y1="263.5" x2="330.1" y2="332.2"/>
<line class="st0" x1="338.9" y1="270.7" x2="338.9" y2="339.5"/>
<line class="st0" x1="348.2" y1="278.9" x2="348.2" y2="347.6"/>
<line class="st0" x1="357" y1="281.7" x2="357" y2="350.5"/>
<line class="st0" x1="365.8" y1="280.1" x2="365.8" y2="348.9"/>
</svg>
