<?xml version="1.0" encoding="utf-8"?>
<!-- Generator: Adobe Illustrator 26.5.3, SVG Export Plug-In . SVG Version: 6.00 Build 0)  -->
<svg version="1.1" id="Layer_1" xmlns="http://www.w3.org/2000/svg" xmlns:xlink="http://www.w3.org/1999/xlink" x="0px" y="0px"
	 viewBox="0 0 595.3 841.9" style="enable-background:new 0 0 595.3 841.9;" xml:space="preserve">
<style type="text/css">
	.st0{fill:none;stroke:#010101;stroke-miterlimit:10;}
</style>
<polygon class="st0" points="-217.8,172.3 -236.9,172.3 -256,191.4 -256,210.5 -275.1,286.9 -256,286.9 -256,306 -236.9,306 
	-236.9,325.1 -217.8,325.1 -217.8,306 -198.7,306 -198.7,286.9 -179.6,286.9 -198.7,210.5 -198.7,191.4 "/>
<rect x="-236.9" y="191.4" class="st0" width="19.1" height="38.2"/>
<polygon class="st0" points="-217.8,267.8 -236.9,267.8 -236.9,306 -217.8,306 -217.8,280.5 "/>
<polyline class="st0" points="-265.6,248.7 -313.3,286.9 -275.1,286.9 -256,306 -236.9,286.9 -217.8,286.9 -217.8,306 -236.9,306 
	"/>
<polyline class="st0" points="-217.8,172.3 -217.8,191.4 -236.9,191.4 -236.9,172.3 "/>
<polyline class="st0" points="-198.7,210.5 -217.8,267.8 -236.9,267.8 -256,210.5 "/>
<line class="st0" x1="-198.7" y1="286.9" x2="-217.8" y2="267.8"/>
<line class="st0" x1="-236.9" y1="267.8" x2="-256" y2="286.9"/>
<line class="st0" x1="-217.8" y1="210.5" x2="-236.9" y2="210.5"/>
<polyline class="st0" points="-189.2,248.7 -141.4,286.9 -179.6,286.9 -198.7,306 -217.8,286.9 "/>
<line class="st0" x1="-227.4" y1="229.6" x2="-227.4" y2="267.8"/>
<line class="st0" x1="-227.5" y1="306" x2="-227.5" y2="325.1"/>
<line class="st0" x1="-193.9" y1="229.6" x2="-209.9" y2="275.7"/>
<line class="st0" x1="-260.8" y1="229.6" x2="-244.8" y2="275.7"/>
<polyline class="st0" points="729.9,411.3 729.9,430.4 710.8,449.5 691.7,449.5 672.6,430.4 672.6,411.3 "/>
<polyline class="st0" points="634.4,411.3 615.3,392.2 615.3,354 634.4,373.1 672.6,354 672.6,296.7 691.7,315.8 691.7,334.9 
	710.8,334.9 710.8,315.8 729.9,296.7 729.9,334.9 729.9,354 768.1,373.1 787.2,354 787.2,392.2 768.1,411.3 729.9,411.3 "/>
<polygon class="st0" points="701.2,373.1 691.7,354 691.7,334.9 710.8,334.9 710.8,354 "/>
<path class="st0" d="M701.2,392.2l-28.7,19.1L701.2,392.2z"/>
<path class="st0" d="M729.9,411.3l-28.7-19.1L729.9,411.3z"/>
<path class="st0" d="M701.2,373.1v19.1V373.1z"/>
<path class="st0" d="M634.4,373.1v38.2V373.1z"/>
<path class="st0" d="M768.1,373.1l0,38.2L768.1,373.1z"/>
<path class="st0" d="M729.9,354v57.3V354z"/>
<path class="st0" d="M672.6,354v57.3V354z"/>
<path class="st0" d="M768.1,411.3l-38.2-19.1L768.1,411.3z"/>
<path class="st0" d="M634.4,411.3l38.2-19.1L634.4,411.3z"/>
<path class="st0" d="M634.4,392.2l-19.1-19.1L634.4,392.2z"/>
<path class="st0" d="M768.1,392.2l19.1-19.1L768.1,392.2z"/>
<polyline class="st0" points="729.9,430.4 710.8,417.6 701.2,411.3 690.2,418.6 672.6,430.4 "/>
<line class="st0" x1="653.5" y1="363.5" x2="653.5" y2="401.7"/>
<polyline class="st0" points="672.6,315.8 691.7,334.9 710.8,334.9 729.9,315.8 "/>
<line class="st0" x1="701.2" y1="411.3" x2="701.2" y2="449.5"/>
<line class="st0" x1="691.7" y1="449.5" x2="691.7" y2="417.6"/>
<line class="st0" x1="710.8" y1="417.6" x2="710.8" y2="449.5"/>
<line class="st0" x1="634.4" y1="411.3" x2="672.6" y2="411.3"/>
<line class="st0" x1="749" y1="363.5" x2="749" y2="401.7"/>
<path class="st0" d="M691.7,354l0,44.6L691.7,354z"/>
<line class="st0" x1="710.8" y1="354" x2="710.8" y2="398.5"/>
<path class="st0" d="M287.6,344.5"/>
<path class="st0" d="M306.7,344.5"/>
<path class="st0" d="M262.1,382.7"/>
<path class="st0" d="M278,420.9"/>
<path class="st0" d="M316.2,420.9"/>
<path class="st0" d="M287.6,478.3"/>
<polyline class="st0" points="325.8,363.6 306.7,401.8 306.7,459.1 306.7,497.4 316.2,497.4 316.2,459.1 316.2,420.9 "/>
<path class="st0" d="M297.1,344.5"/>
<polyline class="st0" points="278,420.9 278,459.1 278,497.4 287.6,497.4 287.6,459.1 287.6,401.8 268.5,363.6 "/>
<path class="st0" d="M325.8,420.9"/>
<path class="st0" d="M268.5,420.9"/>
<path class="st0" d="M268.5,401.8"/>
<path class="st0" d="M325.8,401.8"/>
<polyline class="st0" points="268.5,459.1 268.5,478.3 278,478.3 "/>
<path class="st0" d="M325.8,459.1"/>
<polyline class="st0" points="325.8,401.8 383.1,440 325.8,440 325.8,478.3 316.2,478.3 "/>
<polyline class="st0" points="287.6,362.7 297.1,401.8 297.1,459.1 "/>
<path class="st0" d="M278,382.7"/>
<polyline class="st0" points="268.5,382.7 268.5,401.8 287.6,440 "/>
<line class="st0" x1="268.5" y1="401.8" x2="268.5" y2="440"/>
<line class="st0" x1="306.7" y1="363.6" x2="297.1" y2="401.8"/>
<path class="st0" d="M316.2,401.8"/>
<line class="st0" x1="325.8" y1="440" x2="325.8" y2="401.8"/>
<polyline class="st0" points="306.7,440 325.8,401.8 325.8,382.7 "/>
<path class="st0" d="M316.2,382.7"/>
<path class="st0" d="M269,449.6"/>
<line class="st0" x1="287.6" y1="459.1" x2="306.7" y2="459.1"/>
<path class="st0" d="M241.6,420.6"/>
<polyline class="st0" points="287.6,401.8 287.6,350.9 287.6,344.5 278,382.7 268.5,363.6 268.5,382.7 "/>
<path class="st0" d="M354.4,420.9"/>
<polyline class="st0" points="306.7,401.8 306.7,350.9 306.7,344.5 316.2,382.7 325.8,363.6 325.8,382.7 "/>
<polyline class="st0" points="268.5,401.8 212.2,440 268.5,440 268.5,459.1 249.3,440 "/>
<line class="st0" x1="325.8" y1="459.1" x2="344.9" y2="440"/>
<polyline class="st0" points="249.3,414.8 249.3,382.7 241.6,420.6 "/>
<polyline class="st0" points="354.4,420.9 344.9,382 344.9,414.6 "/>
</svg>
