<?xml version="1.0" encoding="utf-8"?>
<!-- Generator: Adobe Illustrator 26.5.3, SVG Export Plug-In . SVG Version: 6.00 Build 0)  -->
<svg version="1.1" id="Layer_1" xmlns="http://www.w3.org/2000/svg" xmlns:xlink="http://www.w3.org/1999/xlink" x="0px" y="0px"
	 viewBox="0 0 595.3 841.9" style="enable-background:new 0 0 595.3 841.9;" xml:space="preserve">
<style type="text/css">
	.st0{fill:none;stroke:#010101;stroke-miterlimit:10;}
</style>
<polygon class="st0" points="-217.8,172.3 -236.9,172.3 -256,191.4 -256,210.5 -275.1,286.9 -256,286.9 -256,306 -236.9,306 
	-236.9,325.1 -217.8,325.1 -217.8,306 -198.7,306 -198.7,286.9 -179.6,286.9 -198.7,210.5 -198.7,191.4 "/>
<rect x="-236.9" y="191.4" class="st0" width="19.1" height="38.2"/>
<polygon class="st0" points="-217.8,267.8 -236.9,267.8 -236.9,306 -217.8,306 -217.8,280.5 "/>
<polyline class="st0" points="-265.6,248.7 -313.3,286.9 -275.1,286.9 -256,306 -236.9,286.9 -217.8,286.9 -217.8,306 -236.9,306 
	"/>
<polyline class="st0" points="-217.8,172.3 -217.8,191.4 -236.9,191.4 -236.9,172.3 "/>
<polyline class="st0" points="-198.7,210.5 -217.8,267.8 -236.9,267.8 -256,210.5 "/>
<line class="st0" x1="-198.7" y1="286.9" x2="-217.8" y2="267.8"/>
<line class="st0" x1="-236.9" y1="267.8" x2="-256" y2="286.9"/>
<line class="st0" x1="-217.8" y1="210.5" x2="-236.9" y2="210.5"/>
<polyline class="st0" points="-189.2,248.7 -141.4,286.9 -179.6,286.9 -198.7,306 -217.8,286.9 "/>
<line class="st0" x1="-227.4" y1="229.6" x2="-227.4" y2="267.8"/>
<line class="st0" x1="-227.5" y1="306" x2="-227.5" y2="325.1"/>
<line class="st0" x1="-193.9" y1="229.6" x2="-209.9" y2="275.7"/>
<line class="st0" x1="-260.8" y1="229.6" x2="-244.8" y2="275.7"/>
<polyline class="st0" points="729.9,411.3 729.9,430.4 710.8,449.5 691.7,449.5 672.6,430.4 672.6,411.3 "/>
<polyline class="st0" points="634.4,411.3 615.3,392.2 615.3,354 634.4,373.1 672.6,354 672.6,296.7 691.7,315.8 691.7,334.9 
	710.8,334.9 710.8,315.8 729.9,296.7 729.9,334.9 729.9,354 768.1,373.1 787.2,354 787.2,392.2 768.1,411.3 729.9,411.3 "/>
<polygon class="st0" points="701.2,373.1 691.7,354 691.7,334.9 710.8,334.9 710.8,354 "/>
<path class="st0" d="M701.2,392.2l-28.7,19.1L701.2,392.2z"/>
<path class="st0" d="M729.9,411.3l-28.7-19.1L729.9,411.3z"/>
<path class="st0" d="M701.2,373.1v19.1V373.1z"/>
<path class="st0" d="M634.4,373.1v38.2V373.1z"/>
<path class="st0" d="M768.1,373.1l0,38.2L768.1,373.1z"/>
<path class="st0" d="M729.9,354v57.3V354z"/>
<path class="st0" d="M672.6,354v57.3V354z"/>
<path class="st0" d="M768.1,411.3l-38.2-19.1L768.1,411.3z"/>
<path class="st0" d="M634.4,411.3l38.2-19.1L634.4,411.3z"/>
<path class="st0" d="M634.4,392.2l-19.1-19.1L634.4,392.2z"/>
<path class="st0" d="M768.1,392.2l19.1-19.1L768.1,392.2z"/>
<polyline class="st0" points="729.9,430.4 710.8,417.6 701.2,411.3 690.2,418.6 672.6,430.4 "/>
<line class="st0" x1="653.5" y1="363.5" x2="653.5" y2="401.7"/>
<polyline class="st0" points="672.6,315.8 691.7,334.9 710.8,334.9 729.9,315.8 "/>
<line class="st0" x1="701.2" y1="411.3" x2="701.2" y2="449.5"/>
<line class="st0" x1="691.7" y1="449.5" x2="691.7" y2="417.6"/>
<line class="st0" x1="710.8" y1="417.6" x2="710.8" y2="449.5"/>
<line class="st0" x1="634.4" y1="411.3" x2="672.6" y2="411.3"/>
<line class="st0" x1="749" y1="363.5" x2="749" y2="401.7"/>
<path class="st0" d="M691.7,354l0,44.6L691.7,354z"/>
<line class="st0" x1="710.8" y1="354" x2="710.8" y2="398.5"/>
<polyline class="st0" points="288.1,363.6 288.1,344.5 269,382.7 288.1,401.8 288.1,382.7 307.2,382.7 307.2,401.8 326.3,382.7 
	307.2,344.5 307.2,363.6 "/>
<polyline class="st0" points="269,440 249.9,449.6 230.8,459.1 269,382.7 "/>
<polyline class="st0" points="326.3,382.7 364.5,459.1 326.3,440 297.6,497.4 "/>
<polyline class="st0" points="307.2,363.6 307.2,382.7 288.1,382.7 288.1,363.6 "/>
<polyline class="st0" points="259.4,401.8 211.7,440 240.3,440 "/>
<polyline class="st0" points="335.8,401.8 383.6,440 354.9,440 "/>
<path class="st0" d="M288.1,420.9l0,57.3L288.1,420.9z"/>
<path class="st0" d="M307.2,420.9v57.3V420.9z"/>
<polygon class="st0" points="297.6,401.8 288.1,382.7 307.2,382.7 "/>
<polyline class="st0" points="326.3,440 307.2,401.8 307.2,420.9 297.6,440 288.1,420.9 288.1,401.8 269,440 269,478.3 278.5,459.1 
	"/>
<polyline class="st0" points="297.6,401.8 297.6,440 297.6,497.4 "/>
<polyline class="st0" points="326.3,440 326.3,478.3 316.7,459.1 "/>
<polyline class="st0" points="288.1,401.8 297.6,420.9 307.2,401.8 "/>
<line class="st0" x1="269" y1="440" x2="297.6" y2="497.4"/>
</svg>
