<?xml version="1.0" encoding="utf-8"?>
<!-- Generator: Adobe Illustrator 26.5.3, SVG Export Plug-In . SVG Version: 6.00 Build 0)  -->
<svg version="1.1" id="Layer_1" xmlns="http://www.w3.org/2000/svg" xmlns:xlink="http://www.w3.org/1999/xlink" x="0px" y="0px"
	 viewBox="0 0 841.9 595.3" style="enable-background:new 0 0 841.9 595.3;" xml:space="preserve">
<style type="text/css">
	.st0{fill:#FFFFFF;stroke:#000000;stroke-miterlimit:10;}
	.st1{fill:#FFFFFF;stroke:#000000;stroke-width:0.9662;stroke-miterlimit:10;}
</style>
<path class="st0" d="M808.8-100.1"/>
<path class="st0" d="M22.9,297.8"/>
<path class="st0" d="M22.9,297.7"/>
<path class="st0" d="M808.8-100.1"/>
<path class="st0" d="M703.6-100.1"/>
<line class="st0" x1="651" y1="-84.8" x2="598.4" y2="-100"/>
<polyline class="st1" points="598.4,-69.7 649.4,-84.4 861.4,-84.8 "/>
<line class="st0" x1="598.4" y1="-69.6" x2="545.7" y2="-84.9"/>
<line class="st0" x1="598.4" y1="-100" x2="545.7" y2="-84.8"/>
<line class="st0" x1="545.7" y1="-84.8" x2="493.1" y2="-100"/>
<line class="st0" x1="545.7" y1="-84.9" x2="493.1" y2="-69.6"/>
<line class="st0" x1="493.1" y1="-69.6" x2="440.5" y2="-84.9"/>
<line class="st0" x1="493.1" y1="-99.9" x2="440.5" y2="-84.7"/>
<line class="st0" x1="440.5" y1="-84.7" x2="387.9" y2="-99.9"/>
<line class="st0" x1="440.5" y1="-84.8" x2="387.9" y2="-69.5"/>
<line class="st0" x1="387.9" y1="-69.5" x2="335.3" y2="-84.8"/>
<line class="st0" x1="387.9" y1="-99.9" x2="335.3" y2="-84.7"/>
<line class="st0" x1="335.3" y1="-84.7" x2="282.7" y2="-99.9"/>
<line class="st0" x1="335.3" y1="-84.8" x2="282.7" y2="-69.5"/>
<line class="st0" x1="282.7" y1="-69.5" x2="230.1" y2="-84.8"/>
<line class="st0" x1="282.7" y1="-99.8" x2="230.1" y2="-84.6"/>
<line class="st0" x1="230.1" y1="-84.6" x2="177.5" y2="-99.8"/>
<line class="st0" x1="230.1" y1="-84.7" x2="177.5" y2="-69.5"/>
<line class="st0" x1="177.5" y1="-69.5" x2="124.9" y2="-84.7"/>
<line class="st0" x1="177.5" y1="-99.8" x2="124.9" y2="-84.6"/>
<line class="st0" x1="124.9" y1="-84.6" x2="72.3" y2="-99.8"/>
<line class="st0" x1="124.9" y1="-84.7" x2="72.3" y2="-69.5"/>
<line class="st0" x1="72.3" y1="-69.5" x2="19.6" y2="-84.7"/>
<line class="st0" x1="72.3" y1="-99.7" x2="19.6" y2="-84.5"/>
<line class="st0" x1="493.1" y1="-69.5" x2="440.5" y2="-84.7"/>
<line class="st0" x1="493.1" y1="-69.6" x2="440.5" y2="-54.4"/>
<line class="st0" x1="440.5" y1="-54.4" x2="387.9" y2="-69.6"/>
<line class="st0" x1="440.5" y1="-84.7" x2="387.9" y2="-69.5"/>
<line class="st0" x1="387.9" y1="-69.5" x2="335.3" y2="-84.7"/>
<line class="st0" x1="387.9" y1="-69.6" x2="335.3" y2="-54.4"/>
<line class="st0" x1="335.3" y1="-54.4" x2="282.7" y2="-69.6"/>
<line class="st0" x1="335.3" y1="-84.6" x2="282.7" y2="-69.4"/>
<line class="st0" x1="282.7" y1="-69.5" x2="230.1" y2="-84.7"/>
<line class="st0" x1="282.7" y1="-69.6" x2="230.1" y2="-54.3"/>
<line class="st0" x1="230.1" y1="-54.3" x2="177.5" y2="-69.6"/>
<line class="st0" x1="230.1" y1="-84.7" x2="177.5" y2="-69.5"/>
<line class="st0" x1="177.5" y1="-69.5" x2="124.9" y2="-84.7"/>
<line class="st0" x1="177.5" y1="-69.6" x2="124.9" y2="-54.3"/>
<line class="st0" x1="124.9" y1="-54.3" x2="72.3" y2="-69.6"/>
<line class="st0" x1="124.9" y1="-84.6" x2="72.3" y2="-69.4"/>
<line class="st0" x1="72.3" y1="-69.3" x2="19.6" y2="-84.6"/>
<line class="st0" x1="72.3" y1="-69.4" x2="19.6" y2="-54.2"/>
<line class="st0" x1="493.1" y1="-99.8" x2="440.5" y2="-115"/>
<line class="st0" x1="493.1" y1="-99.9" x2="440.5" y2="-84.6"/>
<line class="st0" x1="440.5" y1="-84.6" x2="387.9" y2="-99.9"/>
<line class="st0" x1="440.5" y1="-115" x2="387.9" y2="-99.8"/>
<line class="st0" x1="387.9" y1="-99.8" x2="335.3" y2="-115"/>
<line class="st0" x1="387.9" y1="-99.9" x2="335.3" y2="-84.6"/>
<line class="st0" x1="335.3" y1="-84.6" x2="282.7" y2="-99.9"/>
<line class="st0" x1="335.3" y1="-114.9" x2="282.7" y2="-99.7"/>
<line class="st0" x1="282.7" y1="-99.7" x2="230.1" y2="-114.9"/>
<line class="st0" x1="282.7" y1="-99.8" x2="230.1" y2="-84.6"/>
<line class="st0" x1="230.1" y1="-84.6" x2="177.5" y2="-99.8"/>
<line class="st0" x1="230.1" y1="-114.9" x2="177.5" y2="-99.7"/>
<line class="st0" x1="177.5" y1="-99.7" x2="124.9" y2="-114.9"/>
<line class="st0" x1="177.5" y1="-99.8" x2="124.9" y2="-84.6"/>
<line class="st0" x1="124.9" y1="-84.6" x2="72.3" y2="-99.8"/>
<line class="st0" x1="124.9" y1="-114.8" x2="72.3" y2="-99.6"/>
<line class="st0" x1="72.3" y1="-99.6" x2="19.6" y2="-114.8"/>
<line class="st0" x1="72.3" y1="-99.7" x2="19.6" y2="-84.5"/>
<line class="st0" x1="335.3" y1="-54.1" x2="282.7" y2="-69.3"/>
<line class="st0" x1="335.3" y1="-54.2" x2="282.7" y2="-38.9"/>
<line class="st0" x1="282.7" y1="-38.9" x2="230.1" y2="-54.2"/>
<line class="st0" x1="282.7" y1="-69.3" x2="230.1" y2="-54.1"/>
<line class="st0" x1="230.1" y1="-54.1" x2="177.5" y2="-69.3"/>
<line class="st0" x1="230.1" y1="-54.2" x2="177.5" y2="-38.9"/>
<line class="st0" x1="177.5" y1="-38.9" x2="124.9" y2="-54.2"/>
<line class="st0" x1="177.5" y1="-69.2" x2="124.9" y2="-54"/>
<line class="st0" x1="124.9" y1="-54" x2="72.3" y2="-69.3"/>
<line class="st0" x1="124.9" y1="-54.1" x2="72.3" y2="-38.9"/>
<line class="st0" x1="72.3" y1="-69.3" x2="19.6" y2="-54"/>
<line class="st0" x1="335.3" y1="-114.9" x2="282.7" y2="-130.1"/>
<line class="st0" x1="335.3" y1="-115" x2="282.7" y2="-99.7"/>
<line class="st0" x1="282.7" y1="-99.7" x2="230.1" y2="-115"/>
<line class="st0" x1="282.7" y1="-130.1" x2="230.1" y2="-114.9"/>
<line class="st0" x1="230.1" y1="-114.9" x2="177.5" y2="-130.1"/>
<line class="st0" x1="230.1" y1="-115" x2="177.5" y2="-99.7"/>
<line class="st0" x1="177.5" y1="-99.7" x2="124.9" y2="-115"/>
<line class="st0" x1="177.5" y1="-130" x2="124.9" y2="-114.8"/>
<line class="st0" x1="124.9" y1="-114.8" x2="72.3" y2="-130"/>
<line class="st0" x1="124.9" y1="-114.9" x2="72.3" y2="-99.7"/>
<line class="st0" x1="0" y1="297.6" x2="22.9" y2="297.6"/>
<line class="st0" x1="0" y1="270.3" x2="22.9" y2="270.3"/>
<line class="st0" x1="0" y1="324.9" x2="22.9" y2="324.9"/>
<path class="st0" d="M62.1,298"/>
<path class="st0" d="M62.1,297.9"/>
<line class="st0" x1="39.2" y1="297.8" x2="62.1" y2="297.8"/>
<line class="st0" x1="39.2" y1="270.5" x2="62.1" y2="270.5"/>
<line class="st0" x1="39.2" y1="325.1" x2="62.1" y2="325.1"/>
<path class="st0" d="M101.3,298"/>
<path class="st0" d="M101.3,298"/>
<line class="st0" x1="78.5" y1="297.9" x2="101.3" y2="297.9"/>
<line class="st0" x1="78.5" y1="270.6" x2="101.3" y2="270.6"/>
<line class="st0" x1="78.5" y1="325.2" x2="101.3" y2="325.2"/>
<path class="st0" d="M140.6,298.2"/>
<path class="st0" d="M140.6,298.1"/>
<line class="st0" x1="117.7" y1="298" x2="140.6" y2="298"/>
<line class="st0" x1="117.7" y1="270.7" x2="140.6" y2="270.7"/>
<line class="st0" x1="117.7" y1="325.4" x2="140.6" y2="325.4"/>
<path class="st0" d="M180.1,298.2"/>
<path class="st0" d="M180.1,298.1"/>
<line class="st0" x1="157.3" y1="298" x2="180.1" y2="298"/>
<line class="st0" x1="157.3" y1="270.7" x2="180.1" y2="270.7"/>
<line class="st0" x1="157.3" y1="325.3" x2="180.1" y2="325.3"/>
<path class="st0" d="M219.4,298.3"/>
<path class="st0" d="M219.4,298.2"/>
<line class="st0" x1="196.5" y1="298.2" x2="219.4" y2="298.2"/>
<line class="st0" x1="196.5" y1="270.9" x2="219.4" y2="270.9"/>
<line class="st0" x1="196.5" y1="325.5" x2="219.4" y2="325.5"/>
<path class="st0" d="M258.6,298.4"/>
<path class="st0" d="M258.6,298.3"/>
<line class="st0" x1="235.8" y1="298.3" x2="258.6" y2="298.3"/>
<line class="st0" x1="235.8" y1="271" x2="258.6" y2="271"/>
<line class="st0" x1="235.8" y1="325.6" x2="258.6" y2="325.6"/>
<path class="st0" d="M297.9,298.6"/>
<path class="st0" d="M297.9,298.5"/>
<line class="st0" x1="275" y1="298.4" x2="297.9" y2="298.4"/>
<line class="st0" x1="275" y1="271.1" x2="297.9" y2="271.1"/>
<line class="st0" x1="275" y1="325.7" x2="297.9" y2="325.7"/>
<path class="st0" d="M335.7,298.6"/>
<path class="st0" d="M335.7,298.5"/>
<line class="st0" x1="312.9" y1="298.5" x2="335.7" y2="298.5"/>
<line class="st0" x1="312.9" y1="271.2" x2="335.7" y2="271.2"/>
<line class="st0" x1="312.9" y1="325.8" x2="335.7" y2="325.8"/>
<path class="st0" d="M375,298.7"/>
<path class="st0" d="M375,298.6"/>
<line class="st0" x1="352.1" y1="298.5" x2="375" y2="298.5"/>
<line class="st0" x1="352.1" y1="271.2" x2="375" y2="271.2"/>
<line class="st0" x1="352.1" y1="325.8" x2="375" y2="325.8"/>
<path class="st0" d="M414.2,298.9"/>
<path class="st0" d="M414.2,298.8"/>
<line class="st0" x1="391.4" y1="298.7" x2="414.2" y2="298.7"/>
<line class="st0" x1="391.4" y1="271.4" x2="414.2" y2="271.4"/>
<line class="st0" x1="391.4" y1="326" x2="414.2" y2="326"/>
<path class="st0" d="M452.6,298.5"/>
<path class="st0" d="M452.6,298.4"/>
<line class="st0" x1="429.8" y1="298.3" x2="452.6" y2="298.3"/>
<line class="st0" x1="429.8" y1="271" x2="452.6" y2="271"/>
<line class="st0" x1="429.8" y1="325.6" x2="452.6" y2="325.6"/>
<path class="st0" d="M491.9,298.7"/>
<path class="st0" d="M491.9,298.6"/>
<line class="st0" x1="469" y1="298.5" x2="491.9" y2="298.5"/>
<line class="st0" x1="469" y1="271.2" x2="491.9" y2="271.2"/>
<line class="st0" x1="469" y1="325.8" x2="491.9" y2="325.8"/>
<path class="st0" d="M531.1,298.7"/>
<path class="st0" d="M531.1,298.6"/>
<line class="st0" x1="508.3" y1="298.6" x2="531.1" y2="298.6"/>
<line class="st0" x1="508.3" y1="271.3" x2="531.1" y2="271.3"/>
<line class="st0" x1="508.3" y1="325.9" x2="531.1" y2="325.9"/>
<path class="st0" d="M570.4,298.9"/>
<path class="st0" d="M570.4,298.8"/>
<line class="st0" x1="547.5" y1="298.7" x2="570.4" y2="298.7"/>
<line class="st0" x1="547.5" y1="271.4" x2="570.4" y2="271.4"/>
<line class="st0" x1="547.5" y1="326.1" x2="570.4" y2="326.1"/>
<path class="st0" d="M609.9,298.9"/>
<path class="st0" d="M609.9,298.8"/>
<line class="st0" x1="587.1" y1="298.7" x2="609.9" y2="298.7"/>
<line class="st0" x1="587.1" y1="271.4" x2="609.9" y2="271.4"/>
<line class="st0" x1="587.1" y1="326" x2="609.9" y2="326"/>
<path class="st0" d="M649.2,299"/>
<path class="st0" d="M649.2,298.9"/>
<line class="st0" x1="626.3" y1="298.9" x2="649.2" y2="298.9"/>
<line class="st0" x1="626.3" y1="271.6" x2="649.2" y2="271.6"/>
<line class="st0" x1="626.3" y1="326.2" x2="649.2" y2="326.2"/>
<path class="st0" d="M688.4,299.1"/>
<path class="st0" d="M688.4,299"/>
<line class="st0" x1="665.6" y1="299" x2="688.4" y2="299"/>
<line class="st0" x1="665.6" y1="271.6" x2="688.4" y2="271.6"/>
<line class="st0" x1="665.6" y1="326.3" x2="688.4" y2="326.3"/>
<path class="st0" d="M727.7,299.3"/>
<path class="st0" d="M727.7,299.2"/>
<line class="st0" x1="704.8" y1="299.1" x2="727.7" y2="299.1"/>
<line class="st0" x1="704.8" y1="271.8" x2="727.7" y2="271.8"/>
<line class="st0" x1="704.8" y1="326.4" x2="727.7" y2="326.4"/>
<path class="st0" d="M765.5,299.3"/>
<path class="st0" d="M765.5,299.2"/>
<line class="st0" x1="742.7" y1="299.2" x2="765.5" y2="299.2"/>
<line class="st0" x1="742.7" y1="271.9" x2="765.5" y2="271.9"/>
<line class="st0" x1="742.7" y1="326.5" x2="765.5" y2="326.5"/>
<path class="st0" d="M804.8,299.4"/>
<path class="st0" d="M804.8,299.3"/>
<line class="st0" x1="781.9" y1="299.2" x2="804.8" y2="299.2"/>
<line class="st0" x1="781.9" y1="271.9" x2="804.8" y2="271.9"/>
<line class="st0" x1="781.9" y1="326.5" x2="804.8" y2="326.5"/>
<path class="st0" d="M844,299.6"/>
<path class="st0" d="M844,299.5"/>
<line class="st0" x1="821.1" y1="299.4" x2="844" y2="299.4"/>
<line class="st0" x1="821.1" y1="272.1" x2="844" y2="272.1"/>
<line class="st0" x1="821.1" y1="326.7" x2="844" y2="326.7"/>
</svg>
