<?xml version="1.0" encoding="utf-8"?>
<!-- Generator: Adobe Illustrator 26.5.3, SVG Export Plug-In . SVG Version: 6.00 Build 0)  -->
<svg version="1.1" id="Layer_1" xmlns="http://www.w3.org/2000/svg" xmlns:xlink="http://www.w3.org/1999/xlink" x="0px" y="0px"
	 viewBox="0 0 841.9 595.3" style="enable-background:new 0 0 841.9 595.3;" xml:space="preserve">
<style type="text/css">
	.st0{fill:#FFFFFF;stroke:#000000;stroke-miterlimit:10;}
	.st1{fill:#FFFFFF;stroke:#000000;stroke-width:0.9662;stroke-miterlimit:10;}
</style>
<path class="st0" d="M808.8-100.1"/>
<path class="st0" d="M11.2,297.8"/>
<path class="st0" d="M11.2,297.7"/>
<path class="st0" d="M808.8-100.1"/>
<path class="st0" d="M703.6-100.1"/>
<line class="st0" x1="651" y1="-84.8" x2="598.4" y2="-100"/>
<polyline class="st1" points="598.4,-69.7 649.4,-84.4 861.4,-84.8 "/>
<line class="st0" x1="598.4" y1="-69.6" x2="545.7" y2="-84.9"/>
<line class="st0" x1="598.4" y1="-100" x2="545.7" y2="-84.8"/>
<line class="st0" x1="545.7" y1="-84.8" x2="493.1" y2="-100"/>
<line class="st0" x1="545.7" y1="-84.9" x2="493.1" y2="-69.6"/>
<line class="st0" x1="493.1" y1="-69.6" x2="440.5" y2="-84.9"/>
<line class="st0" x1="493.1" y1="-99.9" x2="440.5" y2="-84.7"/>
<line class="st0" x1="440.5" y1="-84.7" x2="387.9" y2="-99.9"/>
<line class="st0" x1="440.5" y1="-84.8" x2="387.9" y2="-69.5"/>
<line class="st0" x1="387.9" y1="-69.5" x2="335.3" y2="-84.8"/>
<line class="st0" x1="387.9" y1="-99.9" x2="335.3" y2="-84.7"/>
<line class="st0" x1="335.3" y1="-84.7" x2="282.7" y2="-99.9"/>
<line class="st0" x1="335.3" y1="-84.8" x2="282.7" y2="-69.5"/>
<line class="st0" x1="282.7" y1="-69.5" x2="230.1" y2="-84.8"/>
<line class="st0" x1="282.7" y1="-99.8" x2="230.1" y2="-84.6"/>
<line class="st0" x1="230.1" y1="-84.6" x2="177.5" y2="-99.8"/>
<line class="st0" x1="230.1" y1="-84.7" x2="177.5" y2="-69.5"/>
<line class="st0" x1="177.5" y1="-69.5" x2="124.9" y2="-84.7"/>
<line class="st0" x1="177.5" y1="-99.8" x2="124.9" y2="-84.6"/>
<line class="st0" x1="124.9" y1="-84.6" x2="72.3" y2="-99.8"/>
<line class="st0" x1="124.9" y1="-84.7" x2="72.3" y2="-69.5"/>
<line class="st0" x1="72.3" y1="-69.5" x2="19.6" y2="-84.7"/>
<line class="st0" x1="72.3" y1="-99.7" x2="19.6" y2="-84.5"/>
<line class="st0" x1="493.1" y1="-69.5" x2="440.5" y2="-84.7"/>
<line class="st0" x1="493.1" y1="-69.6" x2="440.5" y2="-54.4"/>
<line class="st0" x1="440.5" y1="-54.4" x2="387.9" y2="-69.6"/>
<line class="st0" x1="440.5" y1="-84.7" x2="387.9" y2="-69.5"/>
<line class="st0" x1="387.9" y1="-69.5" x2="335.3" y2="-84.7"/>
<line class="st0" x1="387.9" y1="-69.6" x2="335.3" y2="-54.4"/>
<line class="st0" x1="335.3" y1="-54.4" x2="282.7" y2="-69.6"/>
<line class="st0" x1="335.3" y1="-84.6" x2="282.7" y2="-69.4"/>
<line class="st0" x1="282.7" y1="-69.5" x2="230.1" y2="-84.7"/>
<line class="st0" x1="282.7" y1="-69.6" x2="230.1" y2="-54.3"/>
<line class="st0" x1="230.1" y1="-54.3" x2="177.5" y2="-69.6"/>
<line class="st0" x1="230.1" y1="-84.7" x2="177.5" y2="-69.5"/>
<line class="st0" x1="177.5" y1="-69.5" x2="124.9" y2="-84.7"/>
<line class="st0" x1="177.5" y1="-69.6" x2="124.9" y2="-54.3"/>
<line class="st0" x1="124.9" y1="-54.3" x2="72.3" y2="-69.6"/>
<line class="st0" x1="124.9" y1="-84.6" x2="72.3" y2="-69.4"/>
<line class="st0" x1="72.3" y1="-69.3" x2="19.6" y2="-84.6"/>
<line class="st0" x1="72.3" y1="-69.4" x2="19.6" y2="-54.2"/>
<line class="st0" x1="493.1" y1="-99.8" x2="440.5" y2="-115"/>
<line class="st0" x1="493.1" y1="-99.9" x2="440.5" y2="-84.6"/>
<line class="st0" x1="440.5" y1="-84.6" x2="387.9" y2="-99.9"/>
<line class="st0" x1="440.5" y1="-115" x2="387.9" y2="-99.8"/>
<line class="st0" x1="387.9" y1="-99.8" x2="335.3" y2="-115"/>
<line class="st0" x1="387.9" y1="-99.9" x2="335.3" y2="-84.6"/>
<line class="st0" x1="335.3" y1="-84.6" x2="282.7" y2="-99.9"/>
<line class="st0" x1="335.3" y1="-114.9" x2="282.7" y2="-99.7"/>
<line class="st0" x1="282.7" y1="-99.7" x2="230.1" y2="-114.9"/>
<line class="st0" x1="282.7" y1="-99.8" x2="230.1" y2="-84.6"/>
<line class="st0" x1="230.1" y1="-84.6" x2="177.5" y2="-99.8"/>
<line class="st0" x1="230.1" y1="-114.9" x2="177.5" y2="-99.7"/>
<line class="st0" x1="177.5" y1="-99.7" x2="124.9" y2="-114.9"/>
<line class="st0" x1="177.5" y1="-99.8" x2="124.9" y2="-84.6"/>
<line class="st0" x1="124.9" y1="-84.6" x2="72.3" y2="-99.8"/>
<line class="st0" x1="124.9" y1="-114.8" x2="72.3" y2="-99.6"/>
<line class="st0" x1="72.3" y1="-99.6" x2="19.6" y2="-114.8"/>
<line class="st0" x1="72.3" y1="-99.7" x2="19.6" y2="-84.5"/>
<line class="st0" x1="335.3" y1="-54.1" x2="282.7" y2="-69.3"/>
<line class="st0" x1="335.3" y1="-54.2" x2="282.7" y2="-38.9"/>
<line class="st0" x1="282.7" y1="-38.9" x2="230.1" y2="-54.2"/>
<line class="st0" x1="282.7" y1="-69.3" x2="230.1" y2="-54.1"/>
<line class="st0" x1="230.1" y1="-54.1" x2="177.5" y2="-69.3"/>
<line class="st0" x1="230.1" y1="-54.2" x2="177.5" y2="-38.9"/>
<line class="st0" x1="177.5" y1="-38.9" x2="124.9" y2="-54.2"/>
<line class="st0" x1="177.5" y1="-69.2" x2="124.9" y2="-54"/>
<line class="st0" x1="124.9" y1="-54" x2="72.3" y2="-69.3"/>
<line class="st0" x1="124.9" y1="-54.1" x2="72.3" y2="-38.9"/>
<line class="st0" x1="72.3" y1="-69.3" x2="19.6" y2="-54"/>
<line class="st0" x1="335.3" y1="-114.9" x2="282.7" y2="-130.1"/>
<line class="st0" x1="335.3" y1="-115" x2="282.7" y2="-99.7"/>
<line class="st0" x1="282.7" y1="-99.7" x2="230.1" y2="-115"/>
<line class="st0" x1="282.7" y1="-130.1" x2="230.1" y2="-114.9"/>
<line class="st0" x1="230.1" y1="-114.9" x2="177.5" y2="-130.1"/>
<line class="st0" x1="230.1" y1="-115" x2="177.5" y2="-99.7"/>
<line class="st0" x1="177.5" y1="-99.7" x2="124.9" y2="-115"/>
<line class="st0" x1="177.5" y1="-130" x2="124.9" y2="-114.8"/>
<line class="st0" x1="124.9" y1="-114.8" x2="72.3" y2="-130"/>
<line class="st0" x1="124.9" y1="-114.9" x2="72.3" y2="-99.7"/>
<line class="st0" x1="0" y1="325.5" x2="15.9" y2="270"/>
<path class="st0" d="M30.4,298"/>
<path class="st0" d="M30.4,297.9"/>
<path class="st0" d="M844,299.6"/>
<path class="st0" d="M844,299.5"/>
<line class="st0" x1="31.7" y1="325.5" x2="15.9" y2="270"/>
<path class="st0" d="M42.9,297.7"/>
<path class="st0" d="M42.9,297.6"/>
<line class="st0" x1="31.7" y1="325.4" x2="47.6" y2="269.9"/>
<path class="st0" d="M62.1,297.8"/>
<path class="st0" d="M62.1,297.8"/>
<line class="st0" x1="63.4" y1="325.4" x2="47.6" y2="269.9"/>
<path class="st0" d="M74.6,297.7"/>
<path class="st0" d="M74.6,297.6"/>
<line class="st0" x1="63.4" y1="325.4" x2="79.3" y2="269.9"/>
<path class="st0" d="M93.8,297.9"/>
<path class="st0" d="M93.8,297.8"/>
<line class="st0" x1="95.1" y1="325.4" x2="79.3" y2="269.9"/>
<path class="st0" d="M106.3,297.6"/>
<path class="st0" d="M106.3,297.5"/>
<line class="st0" x1="95.1" y1="325.2" x2="111" y2="269.8"/>
<path class="st0" d="M125.5,297.7"/>
<path class="st0" d="M125.5,297.6"/>
<line class="st0" x1="126.8" y1="325.2" x2="111" y2="269.8"/>
<path class="st0" d="M138,297.6"/>
<path class="st0" d="M138,297.5"/>
<line class="st0" x1="126.8" y1="325.3" x2="142.7" y2="269.9"/>
<path class="st0" d="M157.2,297.8"/>
<path class="st0" d="M157.2,297.7"/>
<line class="st0" x1="158.5" y1="325.3" x2="142.7" y2="269.9"/>
<path class="st0" d="M169.7,297.5"/>
<path class="st0" d="M169.7,297.4"/>
<line class="st0" x1="158.5" y1="325.2" x2="174.4" y2="269.8"/>
<path class="st0" d="M188.9,297.7"/>
<path class="st0" d="M188.9,297.6"/>
<line class="st0" x1="190.2" y1="325.2" x2="174.4" y2="269.8"/>
<path class="st0" d="M201.4,297.5"/>
<path class="st0" d="M201.4,297.4"/>
<line class="st0" x1="190.2" y1="325.2" x2="206.1" y2="269.8"/>
<path class="st0" d="M220.6,297.7"/>
<path class="st0" d="M220.6,297.6"/>
<line class="st0" x1="221.9" y1="325.2" x2="206.1" y2="269.8"/>
<path class="st0" d="M233.1,297.4"/>
<path class="st0" d="M233.1,297.3"/>
<line class="st0" x1="221.9" y1="325.1" x2="237.8" y2="269.6"/>
<path class="st0" d="M252.3,297.6"/>
<path class="st0" d="M252.3,297.5"/>
<line class="st0" x1="253.6" y1="325.1" x2="237.8" y2="269.6"/>
<path class="st0" d="M264.8,297.6"/>
<path class="st0" d="M264.8,297.5"/>
<line class="st0" x1="253.6" y1="325.2" x2="269.5" y2="269.8"/>
<path class="st0" d="M284,297.7"/>
<path class="st0" d="M284,297.6"/>
<line class="st0" x1="285.3" y1="325.2" x2="269.5" y2="269.8"/>
<path class="st0" d="M296.5,297.4"/>
<path class="st0" d="M296.5,297.3"/>
<line class="st0" x1="285.3" y1="325.1" x2="301.1" y2="269.7"/>
<path class="st0" d="M315.7,297.6"/>
<path class="st0" d="M315.7,297.5"/>
<line class="st0" x1="317" y1="325.1" x2="301.1" y2="269.7"/>
<path class="st0" d="M328.2,297.4"/>
<path class="st0" d="M328.2,297.3"/>
<line class="st0" x1="317" y1="325.1" x2="332.8" y2="269.7"/>
<path class="st0" d="M379.1,297.5"/>
<path class="st0" d="M379.1,297.4"/>
<path class="st0" d="M391.6,297.4"/>
<path class="st0" d="M391.6,297.3"/>
</svg>
