<?xml version="1.0" encoding="utf-8"?>
<!-- Generator: Adobe Illustrator 26.5.3, SVG Export Plug-In . SVG Version: 6.00 Build 0)  -->
<svg version="1.1" id="Layer_1" xmlns="http://www.w3.org/2000/svg" xmlns:xlink="http://www.w3.org/1999/xlink" x="0px" y="0px"
	 viewBox="0 0 595.3 841.9" style="enable-background:new 0 0 595.3 841.9;" xml:space="preserve">
<style type="text/css">
	.st0{fill:none;stroke:#010101;stroke-miterlimit:10;}
</style>
<polygon class="st0" points="307.3,344.1 288.2,344.1 269.1,363.2 269.1,382.3 250,458.7 269.1,458.7 269.1,477.8 288.2,477.8 
	288.2,496.9 307.3,496.9 307.3,477.8 326.4,477.8 326.4,458.7 345.5,458.7 326.4,382.3 326.4,363.2 "/>
<rect x="288.2" y="363.2" class="st0" width="19.1" height="38.2"/>
<polygon class="st0" points="307.3,439.6 288.2,439.6 288.2,477.8 307.3,477.8 307.3,452.3 "/>
<polyline class="st0" points="259.5,420.5 211.7,458.7 250,458.7 269.1,477.8 288.2,458.7 307.3,458.7 307.3,477.8 288.2,477.8 "/>
<polyline class="st0" points="307.3,344.1 307.3,363.2 288.2,363.2 288.2,344.1 "/>
<polyline class="st0" points="326.4,382.3 307.3,439.6 288.2,439.6 269.1,382.3 "/>
<line class="st0" x1="326.4" y1="458.7" x2="307.3" y2="439.6"/>
<line class="st0" x1="288.2" y1="439.6" x2="269.1" y2="458.7"/>
<line class="st0" x1="307.3" y1="382.3" x2="288.2" y2="382.3"/>
<polyline class="st0" points="335.9,420.5 383.7,458.7 345.5,458.7 326.4,477.8 307.3,458.7 "/>
<line class="st0" x1="297.7" y1="401.4" x2="297.7" y2="439.6"/>
<line class="st0" x1="297.6" y1="477.8" x2="297.6" y2="496.9"/>
<line class="st0" x1="331.1" y1="401.4" x2="315.2" y2="447.5"/>
<line class="st0" x1="264.3" y1="401.4" x2="280.2" y2="447.5"/>
</svg>
