<?xml version="1.0" encoding="utf-8"?>
<!-- Generator: Adobe Illustrator 26.5.3, SVG Export Plug-In . SVG Version: 6.00 Build 0)  -->
<svg version="1.1" id="Layer_1" xmlns="http://www.w3.org/2000/svg" xmlns:xlink="http://www.w3.org/1999/xlink" x="0px" y="0px"
	 viewBox="0 0 841.9 595.3" style="enable-background:new 0 0 841.9 595.3;" xml:space="preserve">
<style type="text/css">
	.st0{fill:none;stroke:#000000;stroke-miterlimit:10;}
	.st1{fill:none;stroke:#000000;stroke-width:0.9254;stroke-miterlimit:10;}
	.st2{fill:#FFFFFF;stroke:#000000;stroke-miterlimit:10;}
	.st3{fill:#FFFFFF;stroke:#000000;stroke-width:0.9662;stroke-miterlimit:10;}
</style>
<path class="st0" d="M309.1,228.6c-2.6,3-28.9,34.2-25.6,85.6c2.8,44.7,25.8,70.9,29.5,74.9"/>
<path class="st0" d="M323.2,228.9c-2.6,3-28.9,34.2-25.6,85.6c2.8,44.7,25.8,70.9,29.5,74.9"/>
<path class="st0" d="M280.8,227.9c-2.6,3-28.9,34.2-25.6,85.6c2.8,44.7,25.8,70.9,29.5,74.9"/>
<path class="st0" d="M294.9,228.2c-2.6,3-28.9,34.2-25.6,85.6c2.8,44.7,25.8,70.9,29.5,74.9"/>
<path class="st0" d="M-136.8,626.4c2.6,3,28.9,34.2,25.6,85.6c-2.8,44.7-25.8,70.9-29.5,74.9"/>
<path class="st0" d="M-150.9,626.8c2.6,3,28.9,34.2,25.6,85.6c-2.8,44.7-25.8,70.9-29.5,74.9"/>
<path class="st0" d="M-108.5,625.7c2.6,3,28.9,34.2,25.6,85.6c-2.8,44.7-25.8,70.9-29.5,74.9"/>
<path class="st0" d="M-122.6,626.1c2.6,3,28.9,34.2,25.6,85.6c-2.8,44.7-25.8,70.9-29.5,74.9"/>
<path class="st1" d="M-291.2,362.5"/>
<path class="st1" d="M-128.5,442.1c-24.6-5.3-58.6-11.3-101-15c-66.4-5.8-122.8-3.4-157.3-0.8l-68-12.2"/>
<path class="st1" d="M-128.5,386.3c-24.6,5.3-58.6,11.3-101,15c-66.4,5.8-122.8,3.4-157.3,0.8l-68,12.2h326.2"/>
<path class="st2" d="M808.8-100.1"/>
<path class="st2" d="M-341.6,72.9"/>
<path class="st2" d="M-341.6,72.8"/>
<path class="st2" d="M808.8-100.1"/>
<path class="st2" d="M703.6-100.1"/>
<line class="st2" x1="651" y1="-84.8" x2="598.4" y2="-100"/>
<polyline class="st3" points="598.4,-69.7 649.4,-84.4 861.4,-84.8 "/>
<line class="st2" x1="598.4" y1="-69.6" x2="545.7" y2="-84.9"/>
<line class="st2" x1="598.4" y1="-100" x2="545.7" y2="-84.8"/>
<line class="st2" x1="545.7" y1="-84.8" x2="493.1" y2="-100"/>
<line class="st2" x1="545.7" y1="-84.9" x2="493.1" y2="-69.6"/>
<line class="st2" x1="493.1" y1="-69.6" x2="440.5" y2="-84.9"/>
<line class="st2" x1="493.1" y1="-99.9" x2="440.5" y2="-84.7"/>
<line class="st2" x1="440.5" y1="-84.7" x2="387.9" y2="-99.9"/>
<line class="st2" x1="440.5" y1="-84.8" x2="387.9" y2="-69.5"/>
<line class="st2" x1="387.9" y1="-69.5" x2="335.3" y2="-84.8"/>
<line class="st2" x1="387.9" y1="-99.9" x2="335.3" y2="-84.7"/>
<line class="st2" x1="335.3" y1="-84.7" x2="282.7" y2="-99.9"/>
<line class="st2" x1="335.3" y1="-84.8" x2="282.7" y2="-69.5"/>
<line class="st2" x1="282.7" y1="-69.5" x2="230.1" y2="-84.8"/>
<line class="st2" x1="282.7" y1="-99.8" x2="230.1" y2="-84.6"/>
<line class="st2" x1="230.1" y1="-84.6" x2="177.5" y2="-99.8"/>
<line class="st2" x1="230.1" y1="-84.7" x2="177.5" y2="-69.5"/>
<line class="st2" x1="177.5" y1="-69.5" x2="124.9" y2="-84.7"/>
<line class="st2" x1="177.5" y1="-99.8" x2="124.9" y2="-84.6"/>
<line class="st2" x1="124.9" y1="-84.6" x2="72.3" y2="-99.8"/>
<line class="st2" x1="124.9" y1="-84.7" x2="72.3" y2="-69.5"/>
<line class="st2" x1="72.3" y1="-69.5" x2="19.6" y2="-84.7"/>
<line class="st2" x1="72.3" y1="-99.7" x2="19.6" y2="-84.5"/>
<line class="st2" x1="493.1" y1="-69.5" x2="440.5" y2="-84.7"/>
<line class="st2" x1="493.1" y1="-69.6" x2="440.5" y2="-54.4"/>
<line class="st2" x1="440.5" y1="-54.4" x2="387.9" y2="-69.6"/>
<line class="st2" x1="440.5" y1="-84.7" x2="387.9" y2="-69.5"/>
<line class="st2" x1="387.9" y1="-69.5" x2="335.3" y2="-84.7"/>
<line class="st2" x1="387.9" y1="-69.6" x2="335.3" y2="-54.4"/>
<line class="st2" x1="335.3" y1="-54.4" x2="282.7" y2="-69.6"/>
<line class="st2" x1="335.3" y1="-84.6" x2="282.7" y2="-69.4"/>
<line class="st2" x1="282.7" y1="-69.5" x2="230.1" y2="-84.7"/>
<line class="st2" x1="282.7" y1="-69.6" x2="230.1" y2="-54.3"/>
<line class="st2" x1="230.1" y1="-54.3" x2="177.5" y2="-69.6"/>
<line class="st2" x1="230.1" y1="-84.7" x2="177.5" y2="-69.5"/>
<line class="st2" x1="177.5" y1="-69.5" x2="124.9" y2="-84.7"/>
<line class="st2" x1="177.5" y1="-69.6" x2="124.9" y2="-54.3"/>
<line class="st2" x1="124.9" y1="-54.3" x2="72.3" y2="-69.6"/>
<line class="st2" x1="124.9" y1="-84.6" x2="72.3" y2="-69.4"/>
<line class="st2" x1="72.3" y1="-69.3" x2="19.6" y2="-84.6"/>
<line class="st2" x1="72.3" y1="-69.4" x2="19.6" y2="-54.2"/>
<line class="st2" x1="493.1" y1="-99.8" x2="440.5" y2="-115"/>
<line class="st2" x1="493.1" y1="-99.9" x2="440.5" y2="-84.6"/>
<line class="st2" x1="440.5" y1="-84.6" x2="387.9" y2="-99.9"/>
<line class="st2" x1="440.5" y1="-115" x2="387.9" y2="-99.8"/>
<line class="st2" x1="387.9" y1="-99.8" x2="335.3" y2="-115"/>
<line class="st2" x1="387.9" y1="-99.9" x2="335.3" y2="-84.6"/>
<line class="st2" x1="335.3" y1="-84.6" x2="282.7" y2="-99.9"/>
<line class="st2" x1="335.3" y1="-114.9" x2="282.7" y2="-99.7"/>
<line class="st2" x1="282.7" y1="-99.7" x2="230.1" y2="-114.9"/>
<line class="st2" x1="282.7" y1="-99.8" x2="230.1" y2="-84.6"/>
<line class="st2" x1="230.1" y1="-84.6" x2="177.5" y2="-99.8"/>
<line class="st2" x1="230.1" y1="-114.9" x2="177.5" y2="-99.7"/>
<line class="st2" x1="177.5" y1="-99.7" x2="124.9" y2="-114.9"/>
<line class="st2" x1="177.5" y1="-99.8" x2="124.9" y2="-84.6"/>
<line class="st2" x1="124.9" y1="-84.6" x2="72.3" y2="-99.8"/>
<line class="st2" x1="124.9" y1="-114.8" x2="72.3" y2="-99.6"/>
<line class="st2" x1="72.3" y1="-99.6" x2="19.6" y2="-114.8"/>
<line class="st2" x1="72.3" y1="-99.7" x2="19.6" y2="-84.5"/>
<line class="st2" x1="335.3" y1="-54.1" x2="282.7" y2="-69.3"/>
<line class="st2" x1="335.3" y1="-54.2" x2="282.7" y2="-38.9"/>
<line class="st2" x1="282.7" y1="-38.9" x2="230.1" y2="-54.2"/>
<line class="st2" x1="282.7" y1="-69.3" x2="230.1" y2="-54.1"/>
<line class="st2" x1="230.1" y1="-54.1" x2="177.5" y2="-69.3"/>
<line class="st2" x1="230.1" y1="-54.2" x2="177.5" y2="-38.9"/>
<line class="st2" x1="177.5" y1="-69.2" x2="124.9" y2="-54"/>
<line class="st2" x1="124.9" y1="-54" x2="72.3" y2="-69.3"/>
<line class="st2" x1="124.9" y1="-54.1" x2="72.3" y2="-38.9"/>
<line class="st2" x1="72.3" y1="-69.3" x2="19.6" y2="-54"/>
<line class="st2" x1="335.3" y1="-114.9" x2="282.7" y2="-130.1"/>
<line class="st2" x1="335.3" y1="-115" x2="282.7" y2="-99.7"/>
<line class="st2" x1="282.7" y1="-99.7" x2="230.1" y2="-115"/>
<line class="st2" x1="282.7" y1="-130.1" x2="230.1" y2="-114.9"/>
<line class="st2" x1="230.1" y1="-114.9" x2="177.5" y2="-130.1"/>
<line class="st2" x1="230.1" y1="-115" x2="177.5" y2="-99.7"/>
<line class="st2" x1="177.5" y1="-99.7" x2="124.9" y2="-115"/>
<line class="st2" x1="124.9" y1="-114.8" x2="72.3" y2="-130"/>
<line class="st2" x1="124.9" y1="-114.9" x2="72.3" y2="-99.7"/>
<line class="st2" x1="-352.8" y1="100.5" x2="-336.9" y2="45.1"/>
<path class="st2" d="M-322.4,73"/>
<path class="st2" d="M-322.4,72.9"/>
<path class="st2" d="M844,299.6"/>
<path class="st2" d="M844,299.5"/>
<line class="st2" x1="-321.1" y1="100.5" x2="-336.9" y2="45.1"/>
<path class="st2" d="M-309.9,72.8"/>
<path class="st2" d="M-309.9,72.7"/>
<line class="st2" x1="-321.1" y1="100.4" x2="-305.2" y2="45"/>
<path class="st2" d="M-290.7,72.9"/>
<path class="st2" d="M-290.7,72.8"/>
<line class="st2" x1="-289.4" y1="100.4" x2="-305.2" y2="45"/>
<path class="st2" d="M-278.2,72.8"/>
<path class="st2" d="M-278.2,72.7"/>
<line class="st2" x1="-289.4" y1="100.4" x2="-273.5" y2="45"/>
<path class="st2" d="M-259,72.9"/>
<path class="st2" d="M-259,72.8"/>
<line class="st2" x1="-257.7" y1="100.4" x2="-273.5" y2="45"/>
<path class="st2" d="M-246.5,72.6"/>
<path class="st2" d="M-246.5,72.5"/>
<line class="st2" x1="-257.7" y1="100.3" x2="-241.8" y2="44.9"/>
<path class="st2" d="M-227.3,72.8"/>
<path class="st2" d="M-227.3,72.7"/>
<line class="st2" x1="-226" y1="100.3" x2="-241.8" y2="44.9"/>
<path class="st2" d="M-214.8,72.7"/>
<path class="st2" d="M-214.8,72.6"/>
<line class="st2" x1="-226" y1="100.4" x2="-210.1" y2="44.9"/>
<path class="st2" d="M-195.6,72.9"/>
<path class="st2" d="M-195.6,72.8"/>
<line class="st2" x1="-194.3" y1="100.4" x2="-210.1" y2="44.9"/>
<path class="st2" d="M-183.1,72.6"/>
<path class="st2" d="M-183.1,72.5"/>
<line class="st2" x1="-194.3" y1="100.3" x2="-178.4" y2="44.8"/>
<path class="st2" d="M-163.9,72.8"/>
<path class="st2" d="M-163.9,72.7"/>
<line class="st2" x1="-162.6" y1="100.3" x2="-178.4" y2="44.8"/>
<path class="st2" d="M-151.4,72.6"/>
<path class="st2" d="M-151.4,72.5"/>
<line class="st2" x1="-162.6" y1="100.3" x2="-146.7" y2="44.8"/>
<path class="st2" d="M-132.2,72.8"/>
<path class="st2" d="M-132.2,72.7"/>
<line class="st2" x1="-130.9" y1="100.3" x2="-146.7" y2="44.8"/>
<path class="st2" d="M-119.7,72.5"/>
<path class="st2" d="M-119.7,72.4"/>
<line class="st2" x1="-130.9" y1="100.2" x2="-115" y2="44.7"/>
<path class="st2" d="M-100.5,72.6"/>
<path class="st2" d="M-100.5,72.5"/>
<line class="st2" x1="-99.2" y1="100.2" x2="-115" y2="44.7"/>
<path class="st2" d="M-88,72.6"/>
<path class="st2" d="M-88,72.5"/>
<line class="st2" x1="-99.2" y1="100.3" x2="-83.4" y2="44.9"/>
<path class="st2" d="M-68.8,72.8"/>
<path class="st2" d="M-68.8,72.7"/>
<line class="st2" x1="-67.5" y1="100.3" x2="-83.4" y2="44.9"/>
<path class="st2" d="M-56.3,72.5"/>
<path class="st2" d="M-56.3,72.4"/>
<line class="st2" x1="-67.5" y1="100.2" x2="-51.7" y2="44.7"/>
<path class="st2" d="M-37.1,72.7"/>
<path class="st2" d="M-37.1,72.6"/>
<line class="st2" x1="-35.8" y1="100.2" x2="-51.7" y2="44.7"/>
<path class="st2" d="M-24.6,72.5"/>
<path class="st2" d="M-24.6,72.4"/>
<line class="st2" x1="-35.8" y1="100.2" x2="-20" y2="44.7"/>
<path class="st2" d="M26.3,72.6"/>
<path class="st2" d="M26.3,72.5"/>
<path class="st2" d="M38.8,72.5"/>
<path class="st2" d="M38.8,72.4"/>
<line class="st2" x1="-438.5" y1="211.4" x2="-438.5" y2="280.2"/>
<line class="st2" x1="-429.7" y1="208.8" x2="-429.7" y2="277.6"/>
<line class="st2" x1="-420.9" y1="208.8" x2="-420.9" y2="277.6"/>
<line class="st2" x1="-412.1" y1="210.4" x2="-412.1" y2="279.1"/>
<line class="st2" x1="-403.3" y1="217.6" x2="-403.3" y2="286.3"/>
<line class="st2" x1="-394" y1="225.7" x2="-394" y2="294.5"/>
<line class="st2" x1="-385.2" y1="228.6" x2="-385.2" y2="297.4"/>
<line class="st2" x1="-376.4" y1="227" x2="-376.4" y2="295.7"/>
<line class="st2" x1="-367.1" y1="226.5" x2="-367.1" y2="295.3"/>
<line class="st2" x1="-358.3" y1="218.4" x2="-358.3" y2="287.2"/>
<line class="st2" x1="-349.5" y1="214.2" x2="-349.5" y2="282.9"/>
<line class="st2" x1="-340.7" y1="212.2" x2="-340.7" y2="281"/>
<line class="st2" x1="-331.9" y1="209.6" x2="-331.9" y2="278.4"/>
<line class="st2" x1="-323.1" y1="209.6" x2="-323.1" y2="278.4"/>
<line class="st2" x1="-314.3" y1="211.2" x2="-314.3" y2="279.9"/>
<line class="st2" x1="-305.5" y1="218.4" x2="-305.5" y2="287.2"/>
<line class="st2" x1="-296.3" y1="226.5" x2="-296.3" y2="295.3"/>
<line class="st2" x1="-287.5" y1="229.4" x2="-287.5" y2="298.2"/>
<line class="st2" x1="-278.7" y1="227.8" x2="-278.7" y2="296.6"/>
<line class="st2" x1="-269.2" y1="225" x2="-269.2" y2="293.8"/>
<line class="st2" x1="-260.4" y1="216.9" x2="-260.4" y2="285.6"/>
<line class="st2" x1="-251.6" y1="212.7" x2="-251.6" y2="281.4"/>
<line class="st2" x1="-242.8" y1="210.7" x2="-242.8" y2="279.5"/>
<line class="st2" x1="-234" y1="208.1" x2="-234" y2="276.9"/>
<line class="st2" x1="-225.2" y1="208.1" x2="-225.2" y2="276.9"/>
<line class="st2" x1="-216.4" y1="209.7" x2="-216.4" y2="278.4"/>
<line class="st2" x1="-207.6" y1="216.9" x2="-207.6" y2="285.6"/>
<line class="st2" x1="-198.4" y1="225" x2="-198.4" y2="293.8"/>
<line class="st2" x1="-189.6" y1="227.9" x2="-189.6" y2="296.7"/>
<line class="st2" x1="-180.8" y1="226.3" x2="-180.8" y2="295"/>
<line class="st2" x1="-171.5" y1="225.8" x2="-171.5" y2="294.6"/>
<line class="st2" x1="-162.7" y1="217.7" x2="-162.7" y2="286.4"/>
<line class="st2" x1="-153.9" y1="213.5" x2="-153.9" y2="282.2"/>
<line class="st2" x1="-145.1" y1="211.5" x2="-145.1" y2="280.3"/>
<line class="st2" x1="-136.3" y1="208.9" x2="-136.3" y2="277.7"/>
<line class="st2" x1="-127.5" y1="208.9" x2="-127.5" y2="277.7"/>
<line class="st2" x1="-118.7" y1="210.5" x2="-118.7" y2="279.2"/>
<line class="st2" x1="-109.9" y1="217.7" x2="-109.9" y2="286.4"/>
<line class="st2" x1="-100.6" y1="225.8" x2="-100.6" y2="294.6"/>
<line class="st2" x1="-91.8" y1="228.7" x2="-91.8" y2="297.5"/>
<line class="st2" x1="-83" y1="227.1" x2="-83" y2="295.8"/>
</svg>
