<?xml version="1.0" encoding="utf-8"?>
<!-- Generator: Adobe Illustrator 26.5.3, SVG Export Plug-In . SVG Version: 6.00 Build 0)  -->
<svg version="1.1" id="Layer_1" xmlns="http://www.w3.org/2000/svg" xmlns:xlink="http://www.w3.org/1999/xlink" x="0px" y="0px"
	 viewBox="0 0 595.3 841.9" style="enable-background:new 0 0 595.3 841.9;" xml:space="preserve">
<style type="text/css">
	.st0{fill:none;stroke:#010101;stroke-miterlimit:10;}
</style>
<polygon class="st0" points="-217.8,172.3 -236.9,172.3 -256,191.4 -256,210.5 -275.1,286.9 -256,286.9 -256,306 -236.9,306 
	-236.9,325.1 -217.8,325.1 -217.8,306 -198.7,306 -198.7,286.9 -179.6,286.9 -198.7,210.5 -198.7,191.4 "/>
<rect x="-236.9" y="191.4" class="st0" width="19.1" height="38.2"/>
<polygon class="st0" points="-217.8,267.8 -236.9,267.8 -236.9,306 -217.8,306 -217.8,280.5 "/>
<polyline class="st0" points="-265.6,248.7 -313.3,286.9 -275.1,286.9 -256,306 -236.9,286.9 -217.8,286.9 -217.8,306 -236.9,306 
	"/>
<polyline class="st0" points="-217.8,172.3 -217.8,191.4 -236.9,191.4 -236.9,172.3 "/>
<polyline class="st0" points="-198.7,210.5 -217.8,267.8 -236.9,267.8 -256,210.5 "/>
<line class="st0" x1="-198.7" y1="286.9" x2="-217.8" y2="267.8"/>
<line class="st0" x1="-236.9" y1="267.8" x2="-256" y2="286.9"/>
<line class="st0" x1="-217.8" y1="210.5" x2="-236.9" y2="210.5"/>
<polyline class="st0" points="-189.2,248.7 -141.4,286.9 -179.6,286.9 -198.7,306 -217.8,286.9 "/>
<line class="st0" x1="-227.4" y1="229.6" x2="-227.4" y2="267.8"/>
<line class="st0" x1="-227.5" y1="306" x2="-227.5" y2="325.1"/>
<line class="st0" x1="-193.9" y1="229.6" x2="-209.9" y2="275.7"/>
<line class="st0" x1="-260.8" y1="229.6" x2="-244.8" y2="275.7"/>
<polyline class="st0" points="326.4,459 326.4,478.1 307.3,497.2 288.2,497.2 269.1,478.1 269.1,459 "/>
<polyline class="st0" points="230.8,459 211.7,439.9 211.7,401.7 230.8,420.8 269.1,401.7 269.1,344.4 288.2,363.5 288.2,382.6 
	307.3,382.6 307.3,363.5 326.4,344.4 326.4,382.6 326.4,401.7 364.6,420.8 383.7,401.7 383.7,439.9 364.6,459 326.4,459 "/>
<polygon class="st0" points="297.7,420.8 288.2,401.7 288.2,382.6 307.3,382.6 307.3,401.7 "/>
<path class="st0" d="M297.7,439.9L269.1,459L297.7,439.9z"/>
<path class="st0" d="M326.4,459l-28.7-19.1L326.4,459z"/>
<path class="st0" d="M297.7,420.8v19.1V420.8z"/>
<path class="st0" d="M230.8,420.8V459V420.8z"/>
<path class="st0" d="M364.6,420.8l0,38.2L364.6,420.8z"/>
<path class="st0" d="M326.4,401.7V459V401.7z"/>
<path class="st0" d="M269.1,401.7V459V401.7z"/>
<path class="st0" d="M364.6,459l-38.2-19.1L364.6,459z"/>
<path class="st0" d="M230.8,459l38.2-19.1L230.8,459z"/>
<path class="st0" d="M230.8,439.9l-19.1-19.1L230.8,439.9z"/>
<path class="st0" d="M364.6,439.9l19.1-19.1L364.6,439.9z"/>
<polyline class="st0" points="326.4,478.1 307.3,465.4 297.7,459 286.7,466.4 269.1,478.1 "/>
<line class="st0" x1="250" y1="411.3" x2="250" y2="449.5"/>
<polyline class="st0" points="269.1,363.5 288.2,382.6 307.3,382.6 326.4,363.5 "/>
<line class="st0" x1="297.7" y1="459" x2="297.7" y2="497.2"/>
<line class="st0" x1="288.2" y1="497.2" x2="288.2" y2="465.4"/>
<line class="st0" x1="307.3" y1="465.4" x2="307.3" y2="497.2"/>
<line class="st0" x1="230.8" y1="459" x2="269.1" y2="459"/>
<line class="st0" x1="345.5" y1="411.3" x2="345.5" y2="449.5"/>
<path class="st0" d="M288.2,401.7l0,44.6L288.2,401.7z"/>
<line class="st0" x1="307.3" y1="401.7" x2="307.3" y2="446.3"/>
</svg>
